<svg width="14.000000" height="13.000000" viewBox="0 0 14 13" fill="none" xmlns="http://www.w3.org/2000/svg" xmlns:xlink="http://www.w3.org/1999/xlink">
	<desc>
			Created with Pixso.
	</desc>
	<defs/>
	<path id="Vector" d="M2.2 0.75C2.2 1.14 2.04 1.52 1.76 1.81C1.48 2.09 1.1 2.24 0.7 2.24C0.3 2.24 -0.08 2.09 -0.36 1.8C-0.64 1.52 -0.8 1.14 -0.8 0.74C-0.8 0.35 -0.64 -0.04 -0.36 -0.32C-0.08 -0.6 0.3 -0.76 0.7 -0.76C1.1 -0.76 1.48 -0.6 1.76 -0.32C2.04 -0.03 2.2 0.35 2.2 0.75ZM2.25 3.35L-0.76 3.35L-0.76 12.75L2.25 12.75L2.25 3.35ZM6.98 3.35L4 3.35L4 12.75L6.95 12.75L6.95 7.82C6.95 5.07 10.53 4.82 10.53 7.82L10.53 12.75L13.5 12.75L13.5 6.8C13.5 2.17 8.2 2.34 6.95 4.61L6.98 3.35Z" fill="#75757F" fill-opacity="1.000000" fill-rule="nonzero"/>
</svg>
