<svg width="14.000000" height="12.000000" viewBox="0 0 14 12" fill="none" xmlns="http://www.w3.org/2000/svg" xmlns:xlink="http://www.w3.org/1999/xlink">
	<desc>
			Created with Pixso.
	</desc>
	<defs/>
	<path id="Vector" d="M12.35 1.9C12.98 1.49 13.4 0.93 13.6 0.22C12.99 0.57 12.38 0.8 11.77 0.93C11.23 0.31 10.53 0 9.71 0C8.89 0 8.21 0.3 7.65 0.88C7.09 1.47 6.81 2.19 6.81 3.02C6.81 3.28 6.84 3.5 6.9 3.7C4.51 3.61 2.53 2.56 0.97 0.54C0.71 1.04 0.57 1.54 0.57 2.06C0.57 3.13 1 3.98 1.85 4.6C1.37 4.55 0.94 4.42 0.57 4.21C0.57 4.97 0.79 5.61 1.21 6.17C1.64 6.73 2.19 7.08 2.86 7.23C2.61 7.3 2.36 7.33 2.1 7.33C1.85 7.33 1.68 7.31 1.58 7.26C1.76 7.89 2.1 8.39 2.58 8.78C3.07 9.16 3.63 9.37 4.26 9.39C3.22 10.25 2.04 10.67 0.7 10.67C0.37 10.67 0.14 10.67 0 10.64C1.31 11.55 2.78 12 4.41 12C6.07 12 7.54 11.55 8.82 10.66C10.1 9.77 11.05 8.68 11.65 7.39C12.26 6.11 12.56 4.77 12.56 3.37L12.56 2.99C13.15 2.52 13.63 1.99 14 1.41C13.47 1.65 12.92 1.81 12.35 1.9Z" fill="#75757F" fill-opacity="1.000000" fill-rule="nonzero"/>
</svg>
