<svg width="16.000000" height="12.000000" viewBox="0 0 16 12" fill="none" xmlns="http://www.w3.org/2000/svg" xmlns:xlink="http://www.w3.org/1999/xlink">
	<desc>
			Created with Pixso.
	</desc>
	<defs/>
	<path id="Vector" d="M15.66 1.87C15.48 1.13 14.93 0.55 14.25 0.35C13 0 8 0 8 0C8 0 2.99 0 1.74 0.35C1.06 0.55 0.51 1.13 0.33 1.87C0 3.21 0 6.01 0 6.01C0 6.01 0 8.8 0.33 10.14C0.51 10.88 1.06 11.44 1.74 11.64C2.99 12 8 12 8 12C8 12 13 12 14.25 11.64C14.93 11.44 15.48 10.88 15.66 10.14C16 8.8 16 6.01 16 6.01C16 6.01 16 3.21 15.66 1.87ZM6.36 8.54L6.36 3.47L10.54 6.01L6.36 8.54Z" fill="#75757F" fill-opacity="1.000000" fill-rule="nonzero"/>
</svg>
