<svg width="16.000000" height="16.000000" viewBox="0 0 16 16" fill="none" xmlns="http://www.w3.org/2000/svg" xmlns:xlink="http://www.w3.org/1999/xlink">
	<desc>
			Created with Pixso.
	</desc>
	<defs/>
	<path id="Vector" d="M4.79 0L11.2 0C13.85 0 16 2.14 16 4.79L16 11.2C16 13.85 13.85 16 11.2 16L4.79 16C2.14 16 0 13.85 0 11.2L0 4.79C0 2.14 2.14 0 4.79 0ZM4.79 1.6C3.03 1.6 1.6 3.03 1.6 4.79L1.6 11.2C1.6 12.96 3.03 14.39 4.79 14.39L11.2 14.39C12.96 14.39 14.4 12.96 14.4 11.2L14.4 4.79C14.4 3.03 12.96 1.6 11.2 1.6L4.79 1.6ZM8 12C5.79 12 4 10.2 4 8C4 5.79 5.79 4 8 4C10.2 4 12 5.79 12 8C12 10.2 10.2 12 8 12ZM8 10.39C9.32 10.39 10.4 9.32 10.4 8C10.4 6.67 9.32 5.6 8 5.6C6.67 5.6 5.6 6.67 5.6 8C5.6 9.32 6.67 10.39 8 10.39ZM12 4.79C11.55 4.79 11.2 4.44 11.2 4C11.2 3.55 11.55 3.2 12 3.2C12.44 3.2 12.8 3.55 12.8 4C12.8 4.44 12.44 4.79 12 4.79Z" fill="#75757F" fill-opacity="1.000000" fill-rule="evenodd"/>
</svg>
